<svg width="16" height="16" viewBox="0 0 16 16" fill="none" xmlns="http://www.w3.org/2000/svg"><path d="M12.145 4.852a.96.96 0 1 0 0-1.92.96.96 0 0 0 0 1.92z" fill="#fff"/><path fill-rule="evenodd" clip-rule="evenodd" d="M4 8c0 2.206 1.794 4 4 4s4-1.794 4-4-1.794-4-4-4-4 1.794-4 4zm2 0c0-1.103.897-2 2-2s2 .897 2 2-.897 2-2 2-2-.897-2-2z" fill="#fff"/><path fill-rule="evenodd" clip-rule="evenodd" d="M4 16h8c2.056 0 4-1.944 4-4V4c0-2.056-1.944-4-4-4H4C1.944 0 0 1.944 0 4v8c0 2.056 1.944 4 4 4zM2 4c0-.935 1.065-2 2-2h8c.935 0 2 1.065 2 2v8c0 .935-1.065 2-2 2H4c-.953 0-2-1.047-2-2V4z" fill="#fff"/></svg>