<svg width="36" height="36" viewBox="0 0 36 36" fill="none" xmlns="http://www.w3.org/2000/svg"><path fill-rule="evenodd" clip-rule="evenodd" d="M18 36c9.941 0 18-8.059 18-18S27.941 0 18 0 0 8.059 0 18s8.059 18 18 18z" fill="#FFC952"/><mask id="a" maskUnits="userSpaceOnUse" x="0" y="0" width="36" height="36"><path fill-rule="evenodd" clip-rule="evenodd" d="M18 36c9.941 0 18-8.059 18-18S27.941 0 18 0 0 8.059 0 18s8.059 18 18 18z" fill="#fff"/></mask><g mask="url(#a)"><path d="M6.742 24.5l22.516-13c-3.59-6.218-11.54-8.348-17.758-4.758-6.218 3.59-8.348 11.54-4.758 17.758z" stroke="#FFE852" stroke-width="2"/><path d="M29.258 11.5l-22.516 13c3.59 6.218 11.54 8.348 17.758 4.758 6.218-3.59 8.348-11.54 4.758-17.758z" stroke="#FFB652" stroke-width="2"/><path fill-rule="evenodd" clip-rule="evenodd" d="M21.339 23.445c-.63.688-1.519 1.108-2.665 1.26-.077.026-.115.07-.115.135l.02.86c0 .216-.109.324-.325.324h-1.128c-.216 0-.324-.108-.324-.325l.038-.878c0-.064-.038-.109-.115-.134-1.082-.128-1.926-.497-2.53-1.108-.606-.611-.908-1.382-.908-2.312v-.821c0-.217.108-.325.325-.325h1.986c.217 0 .325.083.325.249v.267c0 .522.166.955.497 1.299.33.344.808.516 1.432.516.573 0 1.006-.147 1.3-.44.292-.292.439-.65.439-1.07 0-.381-.175-.69-.526-.926-.35-.235-.907-.506-1.671-.812-.942-.369-1.65-.707-2.12-1.012-.65-.395-1.147-.85-1.49-1.366-.344-.516-.516-1.156-.516-1.92 0-1.006.299-1.84.898-2.502.598-.663 1.445-1.076 2.54-1.242.077-.026.115-.07.115-.134l-.038-1.031c0-.217.108-.325.324-.325h1.09c.216 0 .324.108.324.325l-.02 1.012c0 .064.04.108.116.134 1.133.127 2.015.512 2.645 1.156.63.643.946 1.46.946 2.454v.63c0 .217-.108.325-.325.325h-2.006c-.216 0-.324-.063-.324-.19v-.192c0-.547-.16-1.006-.478-1.375-.318-.37-.796-.554-1.433-.554-.535 0-.955.127-1.26.382-.306.255-.459.599-.459 1.032 0 .407.172.722.516.945.344.223.904.475 1.68.755.523.19.969.363 1.338.516.968.433 1.681.958 2.14 1.576.458.617.687 1.353.687 2.206 0 1.07-.315 1.948-.945 2.636z" fill="#fff"/></g></svg>