<svg width="16" height="16" viewBox="0 0 16 16" fill="none" xmlns="http://www.w3.org/2000/svg"><path fill-rule="evenodd" clip-rule="evenodd" d="M0 8c0-4.4 3.6-8 8-8s8 3.6 8 8-3.6 8-8 8-8-3.6-8-8zm6 0c0 1.1.9 2 2 2s2-.9 2-2-.9-2-2-2-2 .9-2 2zm2-6c.9 0 1.8.2 2.6.6L9.044 4.156c-.761-.207-1.327-.207-2.09 0L5.4 2.6C6.2 2.2 7.1 2 8 2zM2.6 5.4C2.2 6.2 2 7.1 2 8c0 .9.2 1.8.6 2.6l1.556-1.555c-.207-.762-.207-1.328 0-2.089L2.6 5.4zM8 14c-.9 0-1.8-.2-2.6-.6l1.556-1.556c.76.207 1.327.207 2.089 0L10.6 13.4c-.8.4-1.7.6-2.6.6zm3.844-4.956L13.4 10.6c.4-.8.6-1.7.6-2.6 0-.9-.2-1.8-.6-2.6l-1.556 1.555c.207.762.207 1.328 0 2.089z" fill="#FF7372"/></svg>