<svg width="16" height="18" viewBox="0 0 16 18" fill="none" xmlns="http://www.w3.org/2000/svg"><path fill-rule="evenodd" clip-rule="evenodd" d="M3.617 4.6C7.46.756 13.52.23 15.143 1.854c1.624 1.624 1.063 7.718-2.744 11.526-3.842 3.842-9.857 4.413-11.526 2.744C-.75 14.5-.259 8.475 3.617 4.599zM11 10.413L12.414 9l-1.5-1.5 1.5-1.5L11 4.586l-1.5 1.5-1.5-1.5L6.586 6l1.5 1.5L6.5 9.086 5 7.586 3.586 9l1.5 1.5-1.5 1.5L5 13.414l1.5-1.5 1.5 1.5L9.414 12l-1.5-1.5L9.5 8.914l1.5 1.5z" fill="#fff" opacity=".6"/></svg>