<svg width="24" height="24" viewBox="0 0 24 24" fill="none" xmlns="http://www.w3.org/2000/svg"><path fill-rule="evenodd" clip-rule="evenodd" d="M24 12c0 6.627-5.373 12-12 12S0 18.627 0 12 5.373 0 12 0s12 5.373 12 12zm-11.371 5.872c.98-.131 1.741-.491 2.281-1.08.54-.589.81-1.341.81-2.257a3.33 3.33 0 0 0-.197-1.163 2.886 2.886 0 0 0-.392-.726 3.426 3.426 0 0 0-.648-.654 5.662 5.662 0 0 0-1.184-.695 30.433 30.433 0 0 0-1.145-.442c-.665-.24-1.144-.455-1.44-.646a.918.918 0 0 1-.44-.81c0-.37.13-.665.392-.883.262-.218.621-.327 1.08-.327.544 0 .953.158 1.226.475.272.316.409.708.409 1.177v.164c0 .076.046.126.137.149.039.01.085.014.141.014h1.717c.186 0 .278-.092.278-.278v-.54c0-.85-.27-1.55-.81-2.101-.54-.55-1.294-.88-2.265-.99-.065-.021-.098-.06-.098-.114l.017-.867c0-.185-.093-.278-.278-.278h-.933c-.185 0-.277.093-.277.278l.032.883c0 .055-.032.093-.098.115-.938.141-1.663.496-2.175 1.063a2.881 2.881 0 0 0-.672 1.282 3.675 3.675 0 0 0-.097.86c0 .655.147 1.202.441 1.644.295.442.72.831 1.277 1.17.403.261 1.008.55 1.814.866.655.262 1.132.494 1.432.695.3.202.45.466.45.793 0 .36-.126.666-.377.916-.168.169-.39.28-.667.336-.136.027-.284.04-.445.04-.534 0-.943-.147-1.227-.441-.283-.294-.425-.665-.425-1.112v-.23c0-.14-.092-.212-.278-.212H8.294c-.185 0-.277.093-.277.278v.704c0 .795.258 1.455.776 1.979.519.523 1.24.84 2.167.948.065.022.099.06.099.115l-.034.752c0 .121.04.203.12.245a.34.34 0 0 0 .159.033h.965c.185 0 .278-.093.278-.278l-.017-.736c0-.055.034-.093.099-.114z" fill="#fff"/></svg>