<svg width="18" height="18" viewBox="0 0 18 18" fill="none" xmlns="http://www.w3.org/2000/svg"><path fill-rule="evenodd" clip-rule="evenodd" d="M9 18A9 9 0 1 0 9 0a9 9 0 0 0 0 18z" fill="#FFC952"/><mask id="a" maskUnits="userSpaceOnUse" x="0" y="0" width="18" height="18"><path fill-rule="evenodd" clip-rule="evenodd" d="M9 18A9 9 0 1 0 9 0a9 9 0 0 0 0 18z" fill="#fff"/></mask><g mask="url(#a)"><path fill-rule="evenodd" clip-rule="evenodd" d="M11.605 12.565c-.438.477-1.055.77-1.85.875-.054.018-.08.049-.08.093l.013.597c0 .15-.075.226-.226.226H8.68c-.15 0-.226-.076-.226-.226l.027-.61c0-.044-.027-.075-.08-.093-.752-.088-1.338-.345-1.758-.77-.42-.424-.63-.959-.63-1.605v-.57c0-.15.075-.226.226-.226h1.38c.15 0 .225.058.225.173v.186c0 .362.115.663.345.902.23.238.561.358.995.358.398 0 .698-.102.902-.305.203-.204.305-.451.305-.743 0-.265-.122-.48-.365-.644-.243-.163-.63-.351-1.16-.563-.655-.257-1.146-.491-1.473-.703-.451-.275-.796-.59-1.035-.949C6.12 7.61 6 7.165 6 6.635c0-.699.208-1.278.623-1.738.416-.46 1.004-.747 1.765-.862.053-.018.08-.049.08-.093l-.027-.716c0-.15.075-.226.225-.226h.757c.15 0 .225.075.225.226l-.013.703c0 .044.026.075.08.092.787.089 1.399.356 1.837.803.438.447.656 1.015.656 1.705v.438c0 .15-.075.225-.225.225H10.59c-.15 0-.226-.044-.226-.133v-.132c0-.38-.11-.699-.331-.955-.221-.257-.553-.385-.995-.385-.372 0-.663.088-.876.265-.212.177-.318.416-.318.717 0 .283.12.501.358.656.239.155.628.33 1.168.524.362.133.672.252.928.358.672.301 1.168.666 1.486 1.095.318.429.477.94.477 1.532 0 .743-.218 1.353-.656 1.83z" fill="#fff"/></g></svg>