<svg width="24" height="24" viewBox="0 0 24 24" fill="none" xmlns="http://www.w3.org/2000/svg"><path fill-rule="evenodd" clip-rule="evenodd" d="M24 12c0 6.627-5.373 12-12 12S0 18.627 0 12 5.373 0 12 0s12 5.373 12 12zm-11.203 5.79c1.017-.14 1.805-.525 2.364-1.156.56-.63.839-1.437.839-2.418 0-.783-.203-1.457-.61-2.024-.407-.566-1.04-1.048-1.899-1.446-.327-.14-.723-.297-1.186-.473-.69-.257-1.186-.487-1.491-.692a.984.984 0 0 1-.458-.867c0-.397.136-.713.407-.946.27-.234.644-.35 1.118-.35.565 0 .99.168 1.272.507.282.339.423.76.423 1.262v.175c0 .117.096.175.288.175h1.78c.192 0 .288-.099.288-.298v-.578c0-.911-.28-1.662-.839-2.252-.56-.59-1.342-.943-2.347-1.06-.068-.023-.102-.064-.102-.122l.017-.93c0-.198-.096-.297-.288-.297h-.966c-.192 0-.288.1-.288.298l.034.946c0 .059-.034.1-.102.123-.972.152-1.723.531-2.254 1.139C8.266 7.113 8 7.879 8 8.8c0 .701.153 1.288.458 1.761.305.474.745.891 1.322 1.253.418.28 1.045.59 1.881.93.678.28 1.172.528 1.483.744.31.216.466.5.466.85 0 .385-.13.712-.39.981s-.644.403-1.152.403c-.554 0-.978-.158-1.271-.473-.294-.315-.441-.713-.441-1.191v-.246c0-.152-.096-.228-.288-.228H8.305c-.192 0-.288.1-.288.298v.754c0 .852.268 1.56.805 2.12s1.285.9 2.246 1.016c.068.024.101.065.101.123l-.033.806c0 .199.096.298.288.298h1c.192 0 .288-.1.288-.298l-.017-.788c0-.059.034-.1.102-.123z" fill="#FFC952"/></svg>