<svg width="16" height="16" viewBox="0 0 16 16" fill="none" xmlns="http://www.w3.org/2000/svg"><path d="M9.636.293L6.1 3.829l1.414 1.414 2.828-2.828 3.243 3.243-2.828 2.828L12.17 9.9l3.536-3.536a.999.999 0 0 0 0-1.414L11.05.293a.999.999 0 0 0-1.414 0zM.293 9.636L3.83 6.1l1.414 1.414-2.828 2.828 3.243 3.243 2.828-2.828L9.9 12.171l-3.536 3.536a.999.999 0 0 1-1.414 0L.293 11.05a.999.999 0 0 1 0-1.414z" fill="#fff"/><path d="M6 11a.999.999 0 0 1-.707-1.707l4-4a.999.999 0 1 1 1.414 1.414l-4 4A.997.997 0 0 1 6 11z" fill="#fff"/></svg>