<svg width="16" height="16" viewBox="0 0 16 16" fill="none" xmlns="http://www.w3.org/2000/svg"><path fill-rule="evenodd" clip-rule="evenodd" d="M14.4 3.1l-1.1 2.1c.2.3.3.7.4 1L16 7v2l-2.3.8c-.1.4-.2.8-.4 1.1l1.1 2.1-1.4 1.4-2.1-1.1c-.4.1-.7.3-1.1.4L9 16H7l-.8-2.3c-.4-.1-.8-.2-1.1-.4L3 14.4 1.6 13l1.1-2.1c-.1-.4-.3-.7-.4-1.1L0 9V7l2.3-.8c.067-.202.135-.448.232-.68.048-.112.103-.222.168-.32L1.6 3.1l1.5-1.5 2.1 1.1c.3-.2.7-.3 1-.4L7 0h2l.8 2.4c.4.1.8.2 1.1.4L13 1.7l1.4 1.4zM5 8c0 1.7 1.3 3 3 3s3-1.3 3-3-1.3-3-3-3-3 1.3-3 3z" fill="#fff"/></svg>