<svg width="22" height="22" viewBox="0 0 22 22" fill="none" xmlns="http://www.w3.org/2000/svg"><path fill-rule="evenodd" clip-rule="evenodd" d="M18.7 9H20c1.1 0 2 .9 2 1.9 0 1.1-.9 2-2 2h-1.1c-.2.8-.5 1.5-.9 2.1l.9.9c.8.8.8 2 0 2.8-.8.8-2 .8-2.8 0l-.9-.9c-.7.4-1.4.7-2.1.9V20c0 1.1-.9 2-2 2s-2-.9-2-2v-1.2c-.8-.2-1.5-.5-2.1-.9l-.9.9c-.8.8-2 .8-2.8 0-.8-.8-.8-2 0-2.8l.9-.9c-.4-.7-.7-1.4-.9-2.1H2c-1.1 0-2-.9-2-2s.9-2 2-2h1.3c.2-.7.4-1.4.9-2.1L3.3 6c-.8-.8-.8-2 0-2.8.8-.8 2-.8 2.8 0l.8.9c.602-.344 1.204-.54 1.742-.715L8.9 3.3V2c0-1.1.9-2 2-2s2 .9 2 2v1.2c.8.2 1.5.5 2.1.9l.9-.9c.8-.8 2-.8 2.8 0 .8.8.8 2 0 2.8l-.9.9c.4.7.7 1.4.9 2.1zM8 11c0 1.7 1.3 3 3 3s3-1.3 3-3-1.3-3-3-3-3 1.3-3 3z" fill="#A125F4"/></svg>