<svg width="18" height="18" viewBox="0 0 18 18" fill="none" xmlns="http://www.w3.org/2000/svg"><path fill-rule="evenodd" clip-rule="evenodd" d="M9 18A9 9 0 1 0 9 0a9 9 0 0 0 0 18z" fill="#fff"/><mask id="a" maskUnits="userSpaceOnUse" x="0" y="0" width="18" height="18"><path fill-rule="evenodd" clip-rule="evenodd" d="M9 18A9 9 0 1 0 9 0a9 9 0 0 0 0 18z" fill="#fff"/></mask><g mask="url(#a)"><path fill-rule="evenodd" clip-rule="evenodd" d="M11.319 12.781c-.438.478-1.055.77-1.851.876-.053.018-.08.049-.08.093l.014.597c0 .15-.076.225-.226.225h-.783c-.15 0-.225-.075-.225-.225l.026-.61c0-.045-.026-.076-.08-.093-.75-.089-1.337-.345-1.757-.77-.42-.424-.63-.96-.63-1.605v-.57c0-.15.075-.226.225-.226h1.38c.15 0 .226.058.226.173v.185c0 .363.115.664.345.902.23.24.561.359.995.359.397 0 .698-.102.902-.306a1.01 1.01 0 0 0 .305-.743c0-.265-.122-.48-.365-.643-.243-.164-.63-.351-1.16-.564-.655-.256-1.146-.49-1.473-.703-.451-.274-.796-.59-1.035-.948-.239-.358-.358-.803-.358-1.334 0-.698.208-1.277.623-1.737.416-.46 1.004-.748 1.765-.863.053-.017.08-.048.08-.093l-.027-.716c0-.15.075-.225.225-.225h.756c.15 0 .226.075.226.225l-.013.703c0 .044.026.075.08.093.786.089 1.399.356 1.836.803.438.446.657 1.015.657 1.704v.438c0 .15-.075.226-.225.226h-1.393c-.15 0-.226-.045-.226-.133v-.133c0-.38-.11-.698-.331-.955-.222-.256-.553-.385-.995-.385-.372 0-.664.089-.876.266-.212.177-.318.415-.318.716a.74.74 0 0 0 .358.657c.239.155.628.33 1.167.524.363.132.672.252.929.358.672.3 1.167.665 1.486 1.094.318.43.477.94.477 1.533 0 .743-.219 1.353-.656 1.83z" fill="#FFC952"/></g></svg>