<svg viewBox="0 0 233 233" xmlns="http://www.w3.org/2000/svg" fill-rule="evenodd" clip-rule="evenodd" stroke-linejoin="round" stroke-miterlimit="1.414"><path d="M.301 108.844l-.05-.084C4.241 48.029 54.76 0 116.501 0c64.34 0 116.5 52.159 116.5 116.5 0 64.34-52.16 116.5-116.5 116.5-52.522 0-96.927-34.752-111.468-82.521l44.111 18.201c2.222 9.93 9.034 18.64 19.084 22.83 16.443 6.87 35.402-.96 42.242-17.41 1.78-4.3 2.61-8.81 2.49-13.31l40.79-29.15c.33.01.67.02 1 .02 24.41 0 44.25-19.9 44.25-44.338C199 62.882 179.16 43 154.75 43c-24.4 0-44.25 19.882-44.25 44.322 0 .196 0 .392.01.576L82.002 129.31c-4.618-.21-9.252.6-13.646 2.41a31.698 31.698 0 0 0-5.455 2.88L.302 108.83l-.001.014zM103.66 171.24c-5.294 12.71-19.9 18.74-32.596 13.45-5.857-2.44-10.279-6.91-12.83-12.24l14.405 5.97c9.363 3.9 20.105-.54 23.997-9.9 3.904-9.37-.525-20.13-9.883-24.03l-14.891-6.17c5.746-2.18 12.278-2.26 18.381.28 6.153 2.56 10.927 7.38 13.457 13.54 2.53 6.16 2.52 12.959-.04 19.1zm51.09-54.38c-16.25 0-29.48-13.25-29.48-29.538 0-16.275 13.23-29.529 29.48-29.529 16.26 0 29.49 13.254 29.49 29.529 0 16.288-13.23 29.538-29.49 29.538zm-22.09-29.583c0 12.254 9.92 22.183 22.14 22.183 12.23 0 22.15-9.929 22.15-22.183 0-12.253-9.92-22.191-22.15-22.191-12.22 0-22.14 9.938-22.14 22.191z" fill="#fff" fill-rule="nonzero"/></svg>