<svg width="24" height="26" viewBox="0 0 24 26" fill="none" xmlns="http://www.w3.org/2000/svg"><path fill-rule="evenodd" clip-rule="evenodd" d="M13 20c0 1.457.39 2.823 1.07 4H1a1 1 0 0 1-.992-1.124l2-16A1 1 0 0 1 3 6h3V5c0-2.757 2.243-5 5-5s5 2.243 5 5v1h3a1 1 0 0 1 .992.876l.642 5.132A8 8 0 0 0 13 20zM8 5v1h6V5c0-1.654-1.346-3-3-3S8 3.346 8 5z" fill="#47B8E0"/><path fill-rule="evenodd" clip-rule="evenodd" d="M22.743 23.765c-.425.463-1.022.745-1.793.848-.052.018-.077.047-.077.09l.013.579c0 .145-.073.218-.219.218h-.758c-.146 0-.218-.073-.218-.219l.025-.59c0-.043-.025-.073-.077-.09-.728-.086-1.296-.335-1.703-.746-.406-.411-.61-.93-.61-1.555v-.552c0-.146.073-.219.219-.219h1.336c.146 0 .218.056.218.167v.18c0 .351.112.643.335.874.222.231.544.347.963.347.386 0 .677-.099.874-.296a.98.98 0 0 0 .296-.72c0-.256-.118-.464-.354-.622-.235-.159-.61-.341-1.124-.547-.634-.248-1.11-.475-1.427-.68-.436-.266-.77-.573-1.002-.92-.231-.346-.347-.777-.347-1.291 0-.677.202-1.238.604-1.683.403-.446.973-.724 1.71-.836.05-.017.076-.047.076-.09l-.025-.694c0-.145.072-.218.218-.218h.733c.145 0 .218.073.218.218l-.013.682c0 .042.026.072.077.09.763.085 1.356.344 1.78.777.424.433.636.983.636 1.651v.424c0 .146-.073.219-.218.219h-1.35c-.145 0-.218-.043-.218-.129v-.128c0-.369-.107-.677-.321-.925-.214-.249-.536-.373-.964-.373-.36 0-.643.086-.848.257-.206.171-.309.403-.309.694 0 .274.116.486.347.636.232.15.609.319 1.131.507.351.129.651.245.9.347.65.292 1.13.645 1.439 1.06.308.416.463.91.463 1.485 0 .72-.212 1.31-.636 1.773z" fill="#FFC952"/></svg>