<svg width="1440" height="586" viewBox="0 0 1440 586" fill="none" xmlns="http://www.w3.org/2000/svg"><path fill-rule="evenodd" clip-rule="evenodd" d="M0 0h1440v586H0V0z" fill="#1F0369"/><mask id="a" maskUnits="userSpaceOnUse" x="0" y="0" width="1440" height="586"><path fill-rule="evenodd" clip-rule="evenodd" d="M0 0h1440v586H0V0z" fill="#fff"/></mask><g mask="url(#a)"><path opacity=".8" fill-rule="evenodd" clip-rule="evenodd" d="M92.147 197.756C205.004 77.43 332.118-67.304 492.853 34.379c160.736 101.684-16.848 332.895 248.195 427.8 265.042 94.905 375.472 313.248 256.68 453.255-118.794 140.006-673.027 217.816-862.832-100.797C-54.91 496.028-20.71 318.081 92.146 197.756z" transform="rotate(-60 891.223 -13.15)" fill="url(#b)"/><path opacity=".2" fill-rule="evenodd" clip-rule="evenodd" d="M53.888 152.73c66-71 242-197 336-137s-36 172 119 228 163 139 117 198-436 263-547 75-91-293-25-364z" transform="rotate(165 560.178 123.259)" fill="url(#c)"/><path fill-rule="evenodd" clip-rule="evenodd" d="M53.888 152.73c66-71 242-197 336-137s-36 172 119 228 163 139 117 198-436 263-547 75-91-293-25-364z" transform="rotate(60 135.461 10.626)" fill="url(#d)"/><g opacity=".2"><path clip-rule="evenodd" d="M133.5 371c9.665 0 17.5-7.835 17.5-17.5s-7.835-17.5-17.5-17.5-17.5 7.835-17.5 17.5 7.835 17.5 17.5 17.5zm1141 135c9.665 0 17.5-7.835 17.5-17.5s-7.835-17.5-17.5-17.5-17.5 7.835-17.5 17.5 7.835 17.5 17.5 17.5z" stroke="#A3E7D4" stroke-width="4"/><path clip-rule="evenodd" d="M1106 355c6.627 0 12-5.373 12-12s-5.373-12-12-12-12 5.373-12 12 5.373 12 12 12z" stroke="#A3E7D4" stroke-width="8"/><path d="M629.352 442.232l19.602 11.317a1.5 1.5 0 1 0 1.5-2.598l-19.602-11.317V417a1.5 1.5 0 0 0-3 0v22.634l-19.602 11.317a1.5 1.5 0 1 0 1.5 2.598l19.602-11.317zm790.998-28l19.602 11.317a1.5 1.5 0 1 0 1.5-2.598l-19.602-11.317V389a1.5 1.5 0 0 0-3 0v22.634l-19.602 11.317a1.5 1.5 0 1 0 1.5 2.598l19.602-11.317zm-1044.927-89l12.673 7.317a1.5 1.5 0 1 0 1.5-2.598l-12.673-7.317V308a1.5 1.5 0 0 0-3 0v14.634l-12.673 7.317a1.5 1.5 0 1 0 1.5 2.598l12.673-7.317zm27 254l12.673 7.317a1.5 1.5 0 1 0 1.5-2.598l-12.673-7.317V562a1.5 1.5 0 0 0-3 0v14.634l-12.673 7.317a1.5 1.5 0 1 0 1.5 2.598l12.673-7.317z" stroke="#A3E7D4" stroke-width="3" stroke-linecap="round" stroke-linejoin="round"/><path d="M1039.353 249.91l6.101 3.523a.5.5 0 0 0 .5-.866l-6.1-3.522V242a.5.5 0 1 0-1 0v7.045l-6.102 3.522a.5.5 0 0 0 .5.866l6.101-3.522z" stroke="#A3E7D4" stroke-linecap="round" stroke-linejoin="round"/><path opacity=".2" d="M171.351 131.91l6.101 3.523a.5.5 0 0 0 .5-.866l-6.1-3.522V124a.5.5 0 1 0-1 0v7.045l-6.102 3.522a.5.5 0 0 0 .5.866l6.101-3.522z" stroke="#A3E7D4" stroke-linecap="round" stroke-linejoin="round"/><path d="M80.845 447.856l-7.711 13.356a1 1 0 1 0 1.732 1l7.711-13.356H98a1 1 0 1 0 0-2H82.577L74.866 433.5a1 1 0 1 0-1.732 1l7.711 13.356z" stroke="#A3E7D4" stroke-width="2" stroke-linecap="round" stroke-linejoin="round"/><path d="M1180.86 568.423l-13.606-7.856a.5.5 0 0 0-.5.866l13.606 7.856V585a.5.5 0 0 0 1 0v-15.711l13.606-7.856a.5.5 0 0 0-.5-.866l-13.606 7.856zM947.279 372l-7.856 13.606a.5.5 0 0 0 .866.5l7.856-13.606h15.711a.5.5 0 0 0 0-1h-15.711l-7.856-13.606a.5.5 0 0 0-.866.5L947.279 372z" stroke="#A3E7D4" stroke-linecap="round" stroke-linejoin="round"/><path clip-rule="evenodd" d="M267 464c6.627 0 12-5.373 12-12s-5.373-12-12-12-12 5.373-12 12 5.373 12 12 12zm948-161c6.627 0 12-5.373 12-12s-5.373-12-12-12-12 5.373-12 12 5.373 12 12 12zM853 459c6.627 0 12-5.373 12-12s-5.373-12-12-12-12 5.373-12 12 5.373 12 12 12z" stroke="#A3E7D4" stroke-width="2"/><path opacity=".2" clip-rule="evenodd" d="M1332 160c6.627 0 12-5.373 12-12s-5.373-12-12-12-12 5.373-12 12 5.373 12 12 12z" stroke="#A3E7D4" stroke-width="2"/><path clip-rule="evenodd" d="M1394 593c6.627 0 12-5.373 12-12s-5.373-12-12-12-12 5.373-12 12 5.373 12 12 12zM533 362a7 7 0 1 0 0-14 7 7 0 0 0 0 14zm448 116a7 7 0 1 0 0-14 7 7 0 0 0 0 14zm-220 77a7 7 0 1 0 0-14 7 7 0 0 0 0 14zM42 569a7 7 0 1 0 0-14 7 7 0 0 0 0 14zm201-226a7 7 0 1 0 0-14 7 7 0 0 0 0 14zm295 207c6.627 0 12-5.373 12-12s-5.373-12-12-12-12 5.373-12 12 5.373 12 12 12z" stroke="#A3E7D4" stroke-width="2"/><path fill-rule="evenodd" clip-rule="evenodd" d="M178 549a2 2 0 0 1 2-2h46a2 2 0 1 1 0 4h-46a2 2 0 0 1-2-2zm771 32a2 2 0 0 1 2-2h26a2 2 0 1 1 0 4h-26a2 2 0 0 1-2-2zm347-202a2 2 0 0 1 2-2h16a2 2 0 1 1 0 4h-16a2 2 0 0 1-2-2zM483 238a2 2 0 0 1 2-2h16a2 2 0 1 1 0 4h-16a2 2 0 0 1-2-2zm-50 212a2 2 0 0 1 2-2h16a2 2 0 1 1 0 4h-16a2 2 0 0 1-2-2zM311 240a2 2 0 0 1 2-2h6a2 2 0 1 1 0 4h-6a2 2 0 0 1-2-2zm790 184a2 2 0 0 1 2-2h6a2 2 0 1 1 0 4h-6a2 2 0 0 1-2-2z" fill="#A3E7D4"/></g></g><defs><linearGradient id="b" x2="1" gradientUnits="userSpaceOnUse" gradientTransform="matrix(579.05282 -361.02725 363.86898 574.53055 253.656 585.13)"><stop stop-color="#1F0369" stop-opacity=".01"/><stop offset="1" stop-color="#A125F4" stop-opacity=".214"/></linearGradient><linearGradient id="c" x2="1" gradientUnits="userSpaceOnUse" gradientTransform="scale(339.272 310.139) rotate(-68.985 1.46 .002)"><stop stop-color="#1F0369" stop-opacity=".01"/><stop offset="1" stop-color="#A3E7D4" stop-opacity=".242"/></linearGradient><linearGradient id="d" x2="1" gradientUnits="userSpaceOnUse" gradientTransform="matrix(360.32382 -206.98012 226.42263 329.38345 157.841 335.46)"><stop stop-color="#1F0369" stop-opacity=".01"/><stop offset="1" stop-color="#A125F4" stop-opacity=".214"/></linearGradient></defs></svg>